<svg xmlns="http://www.w3.org/2000/svg" xmlns:xlink="http://www.w3.org/1999/xlink" width="201.4998779296875" height="195.5" viewBox="0 0 201.4998779296875 195.5" fill="none">
<rect  x="0" y="0" width="160" height="160" rx="4"    fill="#2A82E4" >
</rect>
<rect  x="72" y="35" width="14" height="88" rx="4"    fill="#E5E5E5" >
</rect>
<rect  x="99" y="92" width="14" height="31" rx="4"    fill="#E5E5E5" >
</rect>
<path   fill="rgba(255, 255, 255, 1)"  d="M25 136L141.005 136.002L141.004 140.002L25 140L25 136ZM142.417 139.415L142.417 139.415C141.637 140.196 140.372 140.196 139.592 139.415L125.464 125.287C124.684 124.507 124.684 123.242 125.464 122.461L125.464 122.461C126.244 121.681 127.509 121.681 128.29 122.461L142.417 136.59C143.198 137.37 143.198 138.635 142.417 139.415ZM142.417 136.59L142.417 136.59C143.198 137.37 143.198 138.635 142.417 139.415L128.289 153.543C127.509 154.323 126.244 154.323 125.463 153.543L125.463 153.543C124.683 152.763 124.683 151.498 125.463 150.717L139.592 136.59C140.372 135.809 141.637 135.809 142.417 136.59Z">
</path>
<path   fill="rgba(255, 255, 255, 1)"  d="M24.0001 140.018L23.0001 27.0177L26.9999 26.9823L27.9999 139.982L24.0001 140.018ZM26.4002 25.5748L26.4002 25.5748C27.1874 26.3481 27.1986 27.6131 26.4252 28.4002L12.4228 42.6527C11.6495 43.4398 10.3845 43.451 9.59735 42.6777L9.59735 42.6777C8.8102 41.9044 8.79901 40.6394 9.57233 39.8522L23.5748 25.5998C24.3481 24.8126 25.6131 24.8014 26.4002 25.5748ZM23.5748 25.5998L23.5748 25.5998C24.3481 24.8126 25.6131 24.8014 26.4002 25.5748L40.6527 39.5772C41.4398 40.3505 41.451 41.6155 40.6777 42.4027L40.6777 42.4027C39.9044 43.1898 38.6394 43.201 37.8522 42.4277L23.5998 28.4253C22.8126 27.6519 22.8014 26.3869 23.5748 25.5998Z">
</path>
<rect  x="45" y="65" width="14" height="58" rx="4"    fill="#E5E5E5" >
</rect>
<rect  x="48.3203125" y="35" width="144.3137435913086" height="160" rx="4"    fill="#A5D63F" >
</rect>
<path   fill="rgba(0, 0, 0, 0)"  d="M52.3203 34.5L188.634 34.5C191.119 34.5 193.134 36.5147 193.134 39L193.134 191C193.134 193.485 191.119 195.5 188.634 195.5L52.3203 195.5C49.835 195.5 47.8203 193.485 47.8203 191L47.8203 39C47.8203 36.5147 49.835 34.5 52.3203 34.5ZM52.3203 35.5C50.3873 35.5 48.8203 37.067 48.8203 39L48.8203 191C48.8203 192.933 50.3873 194.5 52.3203 194.5L188.634 194.5C190.567 194.5 192.134 192.933 192.134 191L192.134 39C192.134 37.067 190.567 35.5 188.634 35.5L52.3203 35.5Z">
</path>
<path     fill="#43CF7C"  d="M41 109.534L41 159.224C41 161.419 42.7797 163.199 44.9752 163.199L197.025 163.199C199.22 163.199 201 161.419 201 159.224L201 109.534C201 107.339 199.22 105.559 197.025 105.559L44.9752 105.559C42.7797 105.559 41 107.339 41 109.534Z">
</path>
<path   fill="rgba(67, 207, 124, 1)"  d="M44.9752 105.059L197.025 105.059L197.025 105.559L197.025 105.059C199.496 105.059 201.5 107.063 201.5 109.534L201 109.534L201.5 109.534L201.5 159.224L201 159.224L201.5 159.224C201.5 161.695 199.496 163.699 197.025 163.699L197.025 163.199L197.025 163.699L44.9752 163.699L44.9752 163.199L44.9752 163.699C42.5036 163.699 40.5 161.695 40.5 159.224L40.5 159.224L40.5 109.534L41 109.534L40.5 109.534C40.5 107.063 42.5036 105.059 44.9752 105.059L44.9752 105.559L44.9752 105.059ZM44.9752 106.059L44.9752 106.059C43.0559 106.059 41.5 107.615 41.5 109.534L41.5 109.534L41.5 159.224L41 159.224L41.5 159.224C41.5 161.143 43.0559 162.699 44.9752 162.699L44.9752 162.699L197.025 162.699L197.025 162.699C198.944 162.699 200.5 161.143 200.5 159.224L200.5 159.224L200.5 109.534L200.5 109.534C200.5 107.615 198.944 106.059 197.025 106.059L197.025 106.059L44.9752 106.059Z">
</path>
<g >
<path     fill="#FFFFFF"  d="M85.257 150.021L80.901 143.757L76.509 150.021L70.677 150.021L77.985 139.545L71.217 129.861L77.049 129.861L80.901 135.369L84.717 129.861L90.549 129.861L83.817 139.545L91.089 150.021L85.257 150.021ZM106.833 150.021L106.833 122.661L112.521 122.661L112.521 150.021L106.833 150.021ZM135.357 131.877Q135.033 131.877 134.799 132.129Q134.565 132.381 134.565 132.705L134.565 137.601Q134.565 137.961 134.799 138.177Q135.033 138.393 135.357 138.393L142.233 138.393Q143.133 138.393 143.763 139.041Q144.393 139.689 144.393 140.625L144.393 147.789Q144.393 148.725 143.763 149.373Q143.133 150.021 142.233 150.021L129.849 150.021L128.769 148.005L137.913 148.005Q138.273 148.005 138.489 147.771Q138.705 147.537 138.705 147.213L138.705 141.237Q138.705 140.877 138.489 140.643Q138.273 140.409 137.913 140.409L131.073 140.409Q130.173 140.409 129.525 139.779Q128.877 139.149 128.877 138.213L128.877 132.057Q128.877 131.157 129.525 130.509Q130.173 129.861 131.073 129.861L144.753 129.861L144.753 131.877L135.357 131.877ZM85.257 187.713L80.901 181.449L76.509 187.713L70.677 187.713L77.985 177.237L71.217 167.553L77.049 167.553L80.901 173.061L84.717 167.553L90.549 167.553L83.817 177.237L91.089 187.713L85.257 187.713Z">
</path>
</g>
<rect  x="60.869384765625" y="45.9317626953125" width="41.830078125" height="9.9378662109375" rx="2"    fill="#E5E5E5" >
</rect>
<rect  x="60.869384765625" y="65.80743408203125" width="52.28758239746094" height="9.9378662109375" rx="2"    fill="#E5E5E5" >
</rect>
<rect  x="60.869384765625" y="85.6832275390625" width="62.7451171875" height="9.9378662109375" rx="2"    fill="#E5E5E5" >
</rect>
<rect  x="149.758056640625" y="45.9317626953125" width="30.326797485351562" height="49.689453125" rx="4"    fill="#E5E5E5" >
</rect>
</svg>
